<svg xmlns="http://www.w3.org/2000/svg" viewBox="0 0 400 500" width="400" height="500" font-family="Helvetica, Arial, sans-serif">
  <rect width="400" height="500" fill="#EEF1EA"/>
  <rect x="36" y="40" width="48" height="6" rx="3" fill="#174B3A"/>
  <text x="36" y="84" font-size="26" font-weight="800" fill="#1F2A22">Pantalón de algodón</text>
  <text x="36" y="108" font-size="14" fill="#1F2A22" opacity="0.7">Ficha técnica</text>
  <text x="36" y="150" font-size="15" fill="#1F2A22" opacity="0.65">Material</text><text x="364" y="150" font-size="15" font-weight="700" fill="#1F2A22" text-anchor="end">100% algodón</text><line x1="36" y1="164" x2="364" y2="164" stroke="#1F2A22" opacity="0.15"/><text x="36" y="196" font-size="15" fill="#1F2A22" opacity="0.65">Corte</text><text x="364" y="196" font-size="15" font-weight="700" fill="#1F2A22" text-anchor="end">Recto, tiro medio</text><line x1="36" y1="210" x2="364" y2="210" stroke="#1F2A22" opacity="0.15"/><text x="36" y="242" font-size="15" fill="#1F2A22" opacity="0.65">Cierre</text><text x="364" y="242" font-size="15" font-weight="700" fill="#1F2A22" text-anchor="end">Botón y cremallera</text><line x1="36" y1="256" x2="364" y2="256" stroke="#1F2A22" opacity="0.15"/><text x="36" y="288" font-size="15" fill="#1F2A22" opacity="0.65">Tallas</text><text x="364" y="288" font-size="15" font-weight="700" fill="#1F2A22" text-anchor="end">S · M · L</text><line x1="36" y1="302" x2="364" y2="302" stroke="#1F2A22" opacity="0.15"/><text x="36" y="334" font-size="15" fill="#1F2A22" opacity="0.65">Colores</text><text x="364" y="334" font-size="15" font-weight="700" fill="#1F2A22" text-anchor="end">Negro · Arena · Verde</text><line x1="36" y1="348" x2="364" y2="348" stroke="#1F2A22" opacity="0.15"/><text x="36" y="380" font-size="15" fill="#1F2A22" opacity="0.65">Lavado</text><text x="364" y="380" font-size="15" font-weight="700" fill="#1F2A22" text-anchor="end">A máquina, agua fría</text><line x1="36" y1="394" x2="364" y2="394" stroke="#1F2A22" opacity="0.15"/><text x="36" y="426" font-size="15" fill="#1F2A22" opacity="0.65">Origen</text><text x="364" y="426" font-size="15" font-weight="700" fill="#1F2A22" text-anchor="end">Hecho en RD</text><line x1="36" y1="440" x2="364" y2="440" stroke="#1F2A22" opacity="0.15"/>
  <text x="36" y="470" font-size="12" fill="#1F2A22" opacity="0.5">Ficha de muestra · Deslizapp demo</text>
</svg>
